<svg width="71" height="18" viewBox="0 0 71 18" fill="none" xmlns="http://www.w3.org/2000/svg">
  <path d="M0.992 17.5V0.699999H3.92V14.788H11.792V17.5H0.992ZM22.6475 17.884C17.5595 17.884 13.9355 14.164 13.9355 9.1C13.9355 4.036 17.5595 0.316 22.6475 0.316C27.6875 0.316 31.3115 4.036 31.3115 9.1C31.3115 14.164 27.6875 17.884 22.6475 17.884ZM22.6715 15.076C25.9595 15.076 28.2635 12.58 28.2635 9.076C28.2635 5.62 25.9595 3.124 22.6715 3.124C19.2875 3.124 16.9595 5.62 16.9595 9.076C16.9595 12.58 19.2875 15.076 22.6715 15.076ZM50.5385 9.868C50.5385 14.788 47.3945 17.884 42.5945 17.884C37.3145 17.884 33.8105 14.092 33.8105 9.076C33.8105 4.036 37.3385 0.316 42.4745 0.316C45.7865 0.316 48.5225 1.852 49.8905 4.468L47.3945 6.004C46.4105 4.108 44.6585 3.028 42.4505 3.028C39.0665 3.028 36.7625 5.548 36.7625 9.1C36.7625 12.604 39.0185 15.172 42.6185 15.172C45.3785 15.172 47.2505 13.636 47.5865 11.068H41.0105V8.428H50.4665C50.5145 8.98 50.5385 9.46 50.5385 9.868ZM61.6475 17.884C56.5595 17.884 52.9355 14.164 52.9355 9.1C52.9355 4.036 56.5595 0.316 61.6475 0.316C66.6875 0.316 70.3115 4.036 70.3115 9.1C70.3115 14.164 66.6875 17.884 61.6475 17.884ZM61.6715 15.076C64.9595 15.076 67.2635 12.58 67.2635 9.076C67.2635 5.62 64.9595 3.124 61.6715 3.124C58.2875 3.124 55.9595 5.62 55.9595 9.076C55.9595 12.58 58.2875 15.076 61.6715 15.076Z" fill="#12181C"/>
</svg>
