
<svg width="80" height="80" viewBox="0 0 80 80" fill="none" xmlns="http://www.w3.org/2000/svg">
<rect width="80" height="80" rx="16" fill="#0066FF"/>
<path fill-rule="evenodd" clip-rule="evenodd" d="M56.9167 37.5833C58.3849 37.5833 59.8185 38.0291 61.0278 38.8617C62.237 39.6943 63.165 40.8745 63.6889 42.246C64.2128 43.6176 64.3079 45.1159 63.9617 46.5427C63.6154 47.9694 62.8441 49.2575 61.7498 50.2363V62.2103C61.7498 62.4163 61.6971 62.6189 61.5967 62.7989C61.4963 62.9788 61.3516 63.1301 61.1763 63.2383C61.001 63.3466 60.8009 63.4082 60.595 63.4173C60.3892 63.4264 60.1844 63.3828 60.0002 63.2905L56.9167 61.7487L53.8332 63.2905C53.649 63.3828 53.4442 63.4264 53.2384 63.4173C53.0325 63.4082 52.8325 63.3466 52.6571 63.2383C52.4818 63.1301 52.3371 62.9788 52.2367 62.7989C52.1363 62.6189 52.0836 62.4163 52.0836 62.2103V50.2363C50.9893 49.2575 50.218 47.9694 49.8718 46.5427C49.5255 45.1159 49.6206 43.6176 50.1445 42.246C50.6684 40.8745 51.5964 39.6943 52.8056 38.8617C54.0149 38.0291 55.4485 37.5833 56.9167 37.5833ZM59.3332 20.6674C60.6151 20.6674 61.8444 21.1766 62.7508 22.083C63.6571 22.9894 64.1663 24.2187 64.1663 25.5005V35.1667C61.8395 33.4216 58.9613 32.5744 56.0602 32.7806C53.159 32.9868 50.4295 34.2325 48.3729 36.2891C46.3163 38.3457 45.0706 41.0752 44.8644 43.9764C44.6582 46.8775 45.5054 49.7557 47.2505 52.0825V59.3322H20.6685C19.3867 59.3322 18.1574 58.823 17.251 57.9166C16.3446 57.0102 15.8354 55.7809 15.8354 54.4991V25.5005C15.8354 24.2187 16.3446 22.9894 17.251 22.083C18.1574 21.1766 19.3867 20.6674 20.6685 20.6674H59.3332ZM30.3347 42.4164H25.5016C24.8607 42.4164 24.2461 42.671 23.7929 43.1241C23.3397 43.5773 23.0851 44.192 23.0851 44.8329C23.0851 45.4738 23.3397 46.0885 23.7929 46.5417C24.2461 46.9948 24.8607 47.2494 25.5016 47.2494H30.3347C30.9756 47.2494 31.5903 46.9948 32.0435 46.5417C32.4967 46.0885 32.7513 45.4738 32.7513 44.8329C32.7513 44.192 32.4967 43.5773 32.0435 43.1241C31.5903 42.671 30.9756 42.4164 30.3347 42.4164ZM40.0009 32.7502H25.5016C24.8857 32.7509 24.2933 32.9867 23.8454 33.4095C23.3975 33.8323 23.128 34.4102 23.0919 35.0251C23.0558 35.64 23.2559 36.2454 23.6512 36.7177C24.0465 37.1901 24.6073 37.4936 25.2189 37.5663L25.5016 37.5833H40.0009C40.6168 37.5826 41.2092 37.3467 41.6571 36.9239C42.105 36.5011 42.3745 35.9232 42.4106 35.3083C42.4467 34.6935 42.2467 34.088 41.8513 33.6157C41.456 33.1434 40.8952 32.8398 40.2836 32.7671L40.0009 32.7502Z" fill="white"/>
<path fill-rule="evenodd" clip-rule="evenodd" d="M57 38C58.4177 38 59.8019 38.4314 60.9696 39.2371C62.1373 40.0428 63.0333 41.1848 63.5392 42.512C64.045 43.8392 64.1369 45.2891 63.8025 46.6697C63.4682 48.0504 62.7234 49.2968 61.6668 50.244V61.8308C61.6668 62.0302 61.6159 62.2263 61.519 62.4004C61.422 62.5745 61.2823 62.7209 61.113 62.8257C60.9437 62.9304 60.7505 62.99 60.5518 62.9989C60.353 63.0077 60.1553 62.9654 59.9774 62.8761L57 61.3842L54.0226 62.8761C53.8447 62.9654 53.647 63.0077 53.4482 62.9989C53.2495 62.99 53.0563 62.9304 52.887 62.8257C52.7177 62.7209 52.578 62.5745 52.481 62.4004C52.3841 62.2263 52.3332 62.0302 52.3332 61.8308V50.244C51.2766 49.2968 50.5318 48.0504 50.1975 46.6697C49.8631 45.2891 49.955 43.8392 50.4608 42.512C50.9667 41.1848 51.8627 40.0428 53.0304 39.2371C54.1981 38.4314 55.5823 38 57 38Z" fill="#C8DEFF"/>
</svg>
