<svg viewBox="0 0 104 104" fill="none" xmlns="http://www.w3.org/2000/svg">
<g clip-path="url(#clip0_1034_3689)">
<path fill-rule="evenodd" clip-rule="evenodd" d="M82.3346 47.6663C84.9674 47.6664 87.5381 48.4658 89.7066 49.9589C91.875 51.4519 93.5391 53.5682 94.4785 56.0276C95.418 58.487 95.5885 61.1738 94.9676 63.7323C94.3467 66.2908 92.9636 68.6004 91.0013 70.3557V91.8273C91.0013 92.1968 90.9068 92.5602 90.7268 92.8828C90.5468 93.2055 90.2873 93.4768 89.9729 93.6709C89.6585 93.865 89.2997 93.9754 88.9306 93.9918C88.5615 94.0082 88.1943 93.9299 87.864 93.7643L82.3346 90.9997L76.8053 93.7643C76.475 93.9299 76.1078 94.0082 75.7387 93.9918C75.3696 93.9754 75.0108 93.865 74.6964 93.6709C74.382 93.4768 74.1225 93.2055 73.9425 92.8828C73.7625 92.5602 73.668 92.1968 73.668 91.8273V70.3557C71.7057 68.6004 70.3226 66.2908 69.7017 63.7323C69.0808 61.1738 69.2513 58.487 70.1907 56.0276C71.1302 53.5682 72.7942 51.4519 74.9627 49.9589C77.1312 48.4658 79.7019 47.6664 82.3346 47.6663ZM86.668 17.333C88.9665 17.333 91.1709 18.2461 92.7962 19.8714C94.4215 21.4967 95.3346 23.7011 95.3346 25.9997V43.333C91.1622 40.2037 86.0011 38.6845 80.7987 39.0542C75.5963 39.4239 70.7019 41.6578 67.014 45.3457C63.3261 49.0336 61.0922 53.928 60.7225 59.1304C60.3528 64.3328 61.872 69.4939 65.0013 73.6663V86.6663H17.3346C15.0361 86.6663 12.8317 85.7533 11.2064 84.1279C9.58106 82.5026 8.66797 80.2982 8.66797 77.9997V25.9997C8.66797 23.7011 9.58106 21.4967 11.2064 19.8714C12.8317 18.2461 15.0361 17.333 17.3346 17.333H86.668ZM34.668 56.333H26.0013C24.852 56.333 23.7498 56.7896 22.9372 57.6022C22.1245 58.4149 21.668 59.5171 21.668 60.6663C21.668 61.8156 22.1245 62.9178 22.9372 63.7305C23.7498 64.5431 24.852 64.9997 26.0013 64.9997H34.668C35.8172 64.9997 36.9194 64.5431 37.7321 63.7305C38.5448 62.9178 39.0013 61.8156 39.0013 60.6663C39.0013 59.5171 38.5448 58.4149 37.7321 57.6022C36.9194 56.7896 35.8172 56.333 34.668 56.333ZM52.0013 38.9997H26.0013C24.8968 39.0009 23.8345 39.4238 23.0314 40.182C22.2282 40.9402 21.745 41.9765 21.6802 43.0791C21.6155 44.1816 21.9742 45.2673 22.6831 46.1143C23.392 46.9612 24.3976 47.5056 25.4943 47.636L26.0013 47.6663H52.0013C53.1058 47.6651 54.1681 47.2422 54.9712 46.484C55.7744 45.7258 56.2577 44.6895 56.3224 43.587C56.3871 42.4844 56.0284 41.3987 55.3195 40.5517C54.6106 39.7048 53.605 39.1605 52.5083 39.03L52.0013 38.9997Z" fill="#C8DEFF"/>
<path fill-rule="evenodd" clip-rule="evenodd" d="M82.3337 47.666C84.9664 47.6661 87.5371 48.4655 89.7056 49.9585C91.8741 51.4516 93.5381 53.5678 94.4776 56.0273C95.417 58.4867 95.5875 61.1734 94.9666 63.7319C94.3457 66.2904 92.9626 68.6001 91.0003 70.3553V91.827C91.0003 92.1965 90.9058 92.5598 90.7258 92.8825C90.5458 93.2052 90.2863 93.4764 89.9719 93.6705C89.6575 93.8646 89.2987 93.9751 88.9296 93.9915C88.5605 94.0078 88.1933 93.9295 87.863 93.764L82.3337 90.9993L76.8043 93.764C76.474 93.9295 76.1068 94.0078 75.7377 93.9915C75.3686 93.9751 75.0098 93.8646 74.6954 93.6705C74.381 93.4764 74.1215 93.2052 73.9415 92.8825C73.7615 92.5598 73.667 92.1965 73.667 91.827V70.3553C71.7047 68.6001 70.3216 66.2904 69.7007 63.7319C69.0798 61.1734 69.2503 58.4867 70.1898 56.0273C71.1292 53.5678 72.7933 51.4516 74.9617 49.9585C77.1302 48.4655 79.7009 47.6661 82.3337 47.666Z" fill="#3F97FF"/>
</g>
<defs>
<clipPath id="clip0_1034_3689">
<rect width="104" height="104" fill="white"/>
</clipPath>
</defs>
</svg>
