<svg  viewBox="0 0 64 64" fill="none" xmlns="http://www.w3.org/2000/svg">
<g clip-path="url(#clip0_1094_4049)">
<path fill-rule="evenodd" clip-rule="evenodd" d="M50.6654 29.3332C52.2855 29.3332 53.8675 29.8252 55.2019 30.744C56.5364 31.6627 57.5604 32.9651 58.1385 34.4786C58.7166 35.9921 58.8216 37.6454 58.4395 39.2199C58.0574 40.7944 57.2063 42.2157 55.9987 43.2958V56.5092C55.9987 56.7365 55.9405 56.9601 55.8298 57.1587C55.719 57.3573 55.5593 57.5242 55.3658 57.6436C55.1723 57.7631 54.9515 57.8311 54.7244 57.8411C54.4973 57.8512 54.2713 57.803 54.068 57.7012L50.6654 55.9998L47.2627 57.7012C47.0594 57.803 46.8335 57.8512 46.6063 57.8411C46.3792 57.8311 46.1584 57.7631 45.9649 57.6436C45.7714 57.5242 45.6117 57.3573 45.501 57.1587C45.3902 56.9601 45.332 56.7365 45.332 56.5092V43.2958C44.1245 42.2157 43.2733 40.7944 42.8912 39.2199C42.5091 37.6454 42.6141 35.9921 43.1922 34.4786C43.7703 32.9651 44.7943 31.6627 46.1288 30.744C47.4632 29.8252 49.0452 29.3332 50.6654 29.3332ZM53.332 10.6665C54.7465 10.6665 56.1031 11.2284 57.1033 12.2286C58.1035 13.2288 58.6654 14.5853 58.6654 15.9998V26.6665C56.0977 24.7408 52.9216 23.8059 49.7202 24.0334C46.5187 24.2609 43.5068 25.6356 41.2373 27.9051C38.9678 30.1746 37.5931 33.1865 37.3656 36.388C37.1381 39.5894 38.073 42.7655 39.9987 45.3332V53.3332H10.6654C9.25088 53.3332 7.89432 52.7713 6.89413 51.7711C5.89393 50.7709 5.33203 49.4143 5.33203 47.9998V15.9998C5.33203 14.5853 5.89393 13.2288 6.89413 12.2286C7.89432 11.2284 9.25088 10.6665 10.6654 10.6665H53.332ZM21.332 34.6665H15.9987C15.2915 34.6665 14.6132 34.9475 14.1131 35.4476C13.613 35.9476 13.332 36.6259 13.332 37.3332C13.332 38.0404 13.613 38.7187 14.1131 39.2188C14.6132 39.7189 15.2915 39.9998 15.9987 39.9998H21.332C22.0393 39.9998 22.7176 39.7189 23.2176 39.2188C23.7177 38.7187 23.9987 38.0404 23.9987 37.3332C23.9987 36.6259 23.7177 35.9476 23.2176 35.4476C22.7176 34.9475 22.0393 34.6665 21.332 34.6665ZM31.9987 23.9998H15.9987C15.319 24.0006 14.6653 24.2608 14.171 24.7274C13.6768 25.194 13.3794 25.8317 13.3396 26.5102C13.2997 27.1887 13.5205 27.8568 13.9567 28.3781C14.393 28.8993 15.0118 29.2342 15.6867 29.3145L15.9987 29.3332H31.9987C32.6784 29.3324 33.3321 29.0722 33.8263 28.6056C34.3206 28.139 34.618 27.5013 34.6578 26.8228C34.6977 26.1443 34.4769 25.4762 34.0407 24.955C33.6044 24.4337 32.9856 24.0988 32.3107 24.0185L31.9987 23.9998Z" fill="#FFC7C7"/>
<path fill-rule="evenodd" clip-rule="evenodd" d="M50.6678 29.333C52.2879 29.333 53.8699 29.825 55.2043 30.7438C56.5388 31.6626 57.5628 32.9649 58.1409 34.4784C58.719 35.9919 58.824 37.6453 58.4419 39.2197C58.0598 40.7942 57.2087 42.2155 56.0011 43.2957V56.509C56.0011 56.7364 55.9429 56.96 55.8322 57.1585C55.7214 57.3571 55.5617 57.524 55.3682 57.6435C55.1748 57.7629 54.954 57.8309 54.7268 57.841C54.4997 57.8511 54.2737 57.8029 54.0704 57.701L50.6678 55.9997L47.2651 57.701C47.0618 57.8029 46.8359 57.8511 46.6087 57.841C46.3816 57.8309 46.1608 57.7629 45.9673 57.6435C45.7738 57.524 45.6141 57.3571 45.5034 57.1585C45.3926 56.96 45.3344 56.7364 45.3344 56.509V43.2957C44.1269 42.2155 43.2757 40.7942 42.8936 39.2197C42.5115 37.6453 42.6165 35.9919 43.1946 34.4784C43.7727 32.9649 44.7967 31.6626 46.1312 30.7438C47.4656 29.825 49.0476 29.333 50.6678 29.333Z" fill="#FF5050"/>
</g>
<defs>
<clipPath id="clip0_1094_4049">
<rect width="64" height="64" fill="white"/>
</clipPath>
</defs>
</svg>
