<svg viewBox="0 0 40 40" fill="none" xmlns="http://www.w3.org/2000/svg">
<g clip-path="url(#clip0_1090_2643)">
<path d="M19.9993 3.3335L20.1943 3.34516C20.5664 3.38904 20.9128 3.55696 21.1777 3.82185C21.4425 4.08673 21.6105 4.43313 21.6543 4.80516L21.666 5.00016V11.6668L21.6743 11.9168C21.734 12.7104 22.0756 13.4565 22.6374 14.0202C23.1993 14.5839 23.9443 14.9279 24.7377 14.9902L24.9993 15.0002H31.666L31.861 15.0118C32.233 15.0557 32.5794 15.2236 32.8443 15.4885C33.1092 15.7534 33.2771 16.0998 33.321 16.4718L33.3327 16.6668V31.6668C33.3328 32.9422 32.8455 34.1694 31.9705 35.0973C31.0956 36.0252 29.8992 36.5837 28.626 36.6585L28.3327 36.6668H11.666C10.3907 36.6669 9.16349 36.1796 8.23558 35.3047C7.30767 34.4298 6.74917 33.2333 6.67435 31.9602L6.66602 31.6668V8.3335C6.66594 7.05814 7.15322 5.83097 8.02815 4.90306C8.90309 3.97515 10.0995 3.41665 11.3727 3.34183L11.666 3.3335H19.9993Z" fill="#C8DEFF"/>
<path d="M31.0973 11.0978C31.3073 11.3078 31.1586 11.6669 30.8616 11.6669H25.333C25.1489 11.6669 24.9997 11.5177 24.9996 11.3336L24.9982 5.80356C24.9982 5.50655 25.3573 5.35776 25.5673 5.56777L31.0973 11.0978Z" fill="#C8DEFF"/>
<path d="M31.0993 11.0978C31.3093 11.3078 31.1606 11.6669 30.8636 11.6669H25.3349C25.1509 11.6669 25.0016 11.5177 25.0016 11.3336L25.0002 5.80356C25.0001 5.50655 25.3592 5.35776 25.5692 5.56777L31.0993 11.0978Z" fill="#3F97FF"/>
</g>
<defs>
<clipPath id="clip0_1090_2643">
<rect width="40" height="40" fill="white"/>
</clipPath>
</defs>
</svg>
