<svg  viewBox="0 0 32 32" fill="none" xmlns="http://www.w3.org/2000/svg">
<g clip-path="url(#clip0_1090_3202)">
<path d="M16.0007 2.66675L16.1566 2.67608C16.4543 2.71118 16.7314 2.84552 16.9433 3.05743C17.1552 3.26934 17.2896 3.54646 17.3247 3.84408L17.334 4.00008V9.33341L17.3407 9.53341C17.3884 10.1683 17.6617 10.7652 18.1111 11.2161C18.5606 11.6671 19.1566 11.9423 19.7913 11.9921L20.0007 12.0001H25.334L25.49 12.0094C25.7876 12.0445 26.0647 12.1789 26.2766 12.3908C26.4885 12.6027 26.6229 12.8798 26.658 13.1774L26.6673 13.3334V25.3334C26.6674 26.3537 26.2775 27.3354 25.5776 28.0778C24.8777 28.8201 23.9205 29.2669 22.902 29.3267L22.6673 29.3334H9.33398C8.3137 29.3335 7.33196 28.9436 6.58964 28.2437C5.84731 27.5438 5.40051 26.5866 5.34065 25.5681L5.33398 25.3334V6.66675C5.33393 5.64647 5.72375 4.66473 6.4237 3.9224C7.12364 3.18007 8.08079 2.73327 9.09932 2.67341L9.33398 2.66675H16.0007Z" fill="#93F0C5"/>
<path d="M24.8775 8.87822C25.0455 9.04621 24.9265 9.33345 24.6889 9.33345H20.266C20.1187 9.33345 19.9994 9.2141 19.9993 9.06685L19.9982 4.6428C19.9981 4.40519 20.2854 4.28616 20.4534 4.45417L24.8775 8.87822Z" fill="#93F0C5"/>
<path d="M24.8794 8.87822C25.0474 9.04621 24.9285 9.33345 24.6909 9.33345H20.2679C20.1207 9.33345 20.0013 9.2141 20.0013 9.06685L20.0002 4.6428C20.0001 4.40519 20.2874 4.28616 20.4554 4.45417L24.8794 8.87822Z" fill="#107C42"/>
</g>
<defs>
<clipPath id="clip0_1090_3202">
<rect width="32" height="32" fill="white"/>
</clipPath>
</defs>
</svg>
