<svg viewBox="0 0 20 20" fill="none" xmlns="http://www.w3.org/2000/svg">
<g clip-path="url(#clip0_1290_662)">
<path d="M19.4259 0.677979L10.8926 6.99203L12.4794 3.27098L19.4259 0.677979Z" fill="#E17726"/>
<path d="M0.480669 0.685547L7.40857 3.27156L8.91532 7.04139L0.480669 0.685547ZM15.9917 14.1063L19.7633 14.1781L18.4452 18.6559L13.8429 17.3888L15.9917 14.1063ZM3.89471 14.1063L6.03544 17.3888L1.44099 18.656L0.130859 14.1781L3.89471 14.1063Z" fill="#E27625"/>
<path d="M8.71194 6.08093L8.86606 11.0591L4.25391 10.8493L5.56583 8.87009L5.58245 8.85105L8.71194 6.08093ZM11.1297 6.02539L14.3069 8.85121L14.3234 8.87017L15.6353 10.8494L11.0242 11.0591L11.1297 6.02539ZM6.17199 14.1206L8.69034 16.0828L5.76493 17.4951L6.17199 14.1206ZM13.7179 14.1203L14.1165 17.4952L11.1992 16.0826L13.7179 14.1203Z" fill="#E27625"/>
<path d="M11.2624 15.8979L14.2227 17.3314L11.4691 18.64L11.4977 17.7751L11.2624 15.8979ZM8.62376 15.8986L8.39778 17.761L8.41635 18.639L5.65625 17.3314L8.62376 15.8986Z" fill="#D5BFB2"/>
<path d="M7.77029 11.709L8.54386 13.3347L5.91016 12.5632L7.77029 11.709ZM12.1194 11.7091L13.9883 12.5632L11.346 13.3345L12.1194 11.7091Z" fill="#233447"/>
<path d="M6.37352 14.1041L5.94782 17.603L3.66602 14.1806L6.37352 14.1041ZM13.5165 14.1042L16.2241 14.1806L13.9338 17.6031L13.5165 14.1042ZM15.7022 10.6516L13.7318 12.6598L12.2125 11.9656L11.4852 13.4947L11.0084 10.8652L15.7022 10.6516ZM4.18665 10.6516L8.88146 10.8652L8.40456 13.4947L7.67705 11.9658L6.16587 12.6599L4.18665 10.6516Z" fill="#CC6228"/>
<path d="M4.05273 10.2394L6.2821 12.5016L6.35932 14.7349L4.05273 10.2394ZM15.8371 10.2354L13.5263 14.7389L13.6133 12.5016L15.8371 10.2354ZM8.77131 10.3772L8.86104 10.942L9.08275 12.3489L8.9402 16.67L8.26629 13.1987L8.26606 13.1629L8.77131 10.3772ZM11.1151 10.3694L11.6217 13.1629L11.6214 13.1987L10.9458 16.6787L10.9191 15.8083L10.8137 12.3233L11.1151 10.3694Z" fill="#E27525"/>
<path d="M13.8113 12.4119L13.7358 14.3522L11.384 16.1846L10.9086 15.8487L11.4415 13.1037L13.8113 12.4119ZM6.08398 12.4119L8.44549 13.1037L8.9784 15.8487L8.50297 16.1846L6.1511 14.3521L6.08398 12.4119Z" fill="#F5841F"/>
<path d="M5.20703 16.9028L8.21587 18.3285L8.20313 17.7197L8.45491 17.4987H11.4328L11.6937 17.7189L11.6744 18.3272L14.6642 16.9064L13.2094 18.1086L11.4502 19.3169H8.43075L6.67277 18.1037L5.20703 16.9028Z" fill="#C0AC9D"/>
<path d="M11.0474 15.708L11.4728 16.0086L11.7221 17.9976L11.3613 17.693H8.52775L8.17383 18.0037L8.41496 16.0087L8.84051 15.708H11.0474Z" fill="#161616"/>
<path d="M18.8627 0.852783L19.887 3.92571L19.2473 7.03283L19.7028 7.38419L19.0864 7.85448L19.5497 8.2123L18.9362 8.77092L19.3128 9.04367L18.3134 10.2109L14.214 9.01733L14.1785 8.9983L11.2244 6.50636L18.8627 0.852783ZM1.02434 0.852783L8.66265 6.50636L5.7085 8.9983L5.673 9.01733L1.57364 10.2109L0.57416 9.04367L0.950459 8.77115L0.33738 8.2123L0.799753 7.85487L0.174089 7.38326L0.646794 7.03166L0 3.92587L1.02434 0.852783Z" fill="#763E1A"/>
<path d="M14.0138 8.7563L18.3573 10.0209L19.7684 14.3701H16.0455L13.4804 14.4024L15.3459 10.7662L14.0138 8.7563ZM5.87375 8.7563L4.5414 10.7662L6.40713 14.4024L3.84318 14.3701H0.126953L1.53015 10.021L5.87375 8.7563ZM12.6925 3.25024L11.4776 6.53152L11.2198 10.9641L11.1211 12.3535L11.1133 15.9027H8.77415L8.76654 12.3602L8.66757 10.963L8.40966 6.53152L7.19492 3.25024H12.6925Z" fill="#F5841F"/>
</g>
<defs>
<clipPath id="clip0_1290_662">
<rect width="20" height="20" fill="white"/>
</clipPath>
</defs>
</svg>
